<?xml version="1.0" encoding="utf-8"?>
<!-- Generator: Adobe Illustrator 27.5.0, SVG Export Plug-In . SVG Version: 6.00 Build 0)  -->
<svg version="1.1" id="_x3C_Layer_x3E_" xmlns="http://www.w3.org/2000/svg" xmlns:xlink="http://www.w3.org/1999/xlink" x="0px"
	 y="0px" viewBox="0 0 3000 2000" style="enable-background:new 0 0 3000 2000;" xml:space="preserve">
<g>
	<defs>
		<rect id="SVGID_1_" width="3000" height="2000"/>
	</defs>
	<clipPath id="SVGID_00000000944923559483091040000013200332989899473578_">
		<use xlink:href="#SVGID_1_"  style="overflow:visible;"/>
	</clipPath>
	
		<rect style="clip-path:url(#SVGID_00000000944923559483091040000013200332989899473578_);fill:#D1EEF7;" width="3000" height="2000"/>
	<g style="clip-path:url(#SVGID_00000000944923559483091040000013200332989899473578_);">
		<g>
			<path style="fill:#FDBAA0;" d="M683.741,1143.871c25.453,6.063,68.711,19.695,92.691,29.581
				c77.207,31.826,34.975,73.033,112.182,104.859l-137.689,51.898c-30.386,12.026-63.771,11.015-94.07,3.199
				c-30.299-7.816-58.104-22.049-85.655-36.184c-64.331-33.005-143.544-62.405-207.875-95.41
				C453.36,1156.229,590.168,1121.58,683.741,1143.871z"/>
		</g>
		<g>
			<path style="fill:#FDBAA0;" d="M1030.192,1385.016c13.111,6.498,27.178,15.635,29.652,30.057
				c2.488,14.51-8.643,28.607-22.173,34.41c-13.53,5.803-28.835,5.229-43.528,4.301c-60.155-3.803-120.04-11.892-179.048-24.184
				l57.482-81.643C927.023,1348.051,981.408,1360.838,1030.192,1385.016z"/>
		</g>
		<g>
			<path style="fill:#FDBAA0;" d="M948.009,1507.29c11.327,9.264,22.997,21.313,22.184,35.924
				c-0.818,14.699-14.818,25.952-29.302,28.584c-14.485,2.633-29.275-1.347-43.388-5.536
				c-57.784-17.151-114.346-38.419-169.115-63.588l74.275-66.731C855.711,1448.203,905.863,1472.821,948.009,1507.29z"/>
		</g>
		<g>
			<path style="fill:#FDBAA0;" d="M827.129,1564.489c7.984,12.263,15.449,27.284,10.244,40.96
				c-5.237,13.759-21.991,20.236-36.591,18.351c-14.601-1.885-27.488-10.162-39.665-18.434
				c-49.86-33.869-97.308-71.289-141.864-111.884l91.015-41.061C757.099,1480.192,797.422,1518.861,827.129,1564.489z"/>
		</g>
		<g>
			<g>
				<g>
					<path style="fill:#FDBAA0;" d="M-153.093,1525.455c20.286,75.105-15.19,138.952,77.65,244.25
						c19.634,22.277,107.738,119.265,131.307,143.301c32.908-25.818,170.195-140.143,196.449-159.578
						c1.35-0.995,2.686-1.975,4.001-2.946c47.069-34.744,78.381-56.32,78.381-56.32c7.338,3.172,15.404,6.661,24.248,9.797
						c39.799,14.141,95.182,21.148,169.043-39.844c3.771-3.12,7.567-6.146,11.388-9.079c13.459-10.395,27.15-19.718,40.751-28.089
						c49.908-30.703,98.6-48.481,130.22-57.924c6.391-1.904,12.07-3.465,16.94-4.731l0.021-0.008
						c11.974-3.107,18.952-4.378,18.952-4.378l-0.007-0.007l-7.737-4.905l-106.262-67.378l-129.858-286.547l-80.453,153.186
						l-0.866-0.543l-0.245-0.158l-0.015-0.014l-13.186-8.359l-0.015-0.014l-1.222-0.777l-1.592-1.011l-0.008-0.007l-27.386,1.583
						l-0.021,0.008l-144.37,8.32l-3.869,0.225l-26.735,1.547c-5.315,4.831-17.199,12.101-34.036,21.161
						c-1.772,0.951-3.587,1.918-5.459,2.916c-1.367,0.713-2.755,1.448-4.172,2.184c0,0,0,0-0.007,0.007
						C107.85,1407.869-65.285,1486.75-153.093,1525.455z"/>
				</g>
			</g>
		</g>
		<g>
			<g>
				<g>
					<path style="fill:#FDBAA0;" d="M214.941,1459.498c0.388,0.362,0.936,0.543,1.499,0.439c0.94-0.175,1.561-1.079,1.387-2.019
						c-11.72-63.139,22.793-119.619,23.144-120.182c0.504-0.812,0.258-1.873-0.557-2.385c-0.812-0.504-1.88-0.255-2.385,0.557
						c-0.357,0.575-35.569,58.198-23.607,122.641C214.492,1458.928,214.68,1459.254,214.941,1459.498z"/>
				</g>
			</g>
		</g>
		<g>
			<g>
				<path style="fill:#E79780;" d="M393.093,1714.888c-30.898-4.22-60.167-16.377-85.084-35.103
					c-2.204-1.656,0.742-4.777,2.929-3.134c24.306,18.267,52.992,29.94,83.103,34.052
					C396.781,1711.078,395.809,1715.259,393.093,1714.888L393.093,1714.888z"/>
			</g>
		</g>
		<g>
			<g>
				<g>
					<g>
						<path style="fill:#9CD9EF;" d="M1290.535,1506.413l-757.691,17.38c-16.45,0.377-30.218-12.773-30.595-29.223l-9.64-420.28
							c-0.378-16.45,12.773-30.218,29.223-30.595l757.69-17.38c16.45-0.378,30.218,12.773,30.595,29.222l9.64,420.28
							C1320.135,1492.268,1306.984,1506.036,1290.535,1506.413z"/>
					</g>
				</g>
				<g>
					<g>
						<g>
							<path style="fill:#24A5B9;" d="M496.4,1187.059c74.574,19.695,148.582,41.497,221.855,65.592
								c35.509,11.677,70.845,23.881,105.988,36.617c16.722,6.06,33.4,12.241,50.032,18.543
								c13.445,5.094,26.892,11.324,41.497,7.577c21.013-5.392,41.742-16.287,61.902-24.265
								c23.505-9.302,47.025-18.569,70.557-27.802c50.166-19.686,100.381-39.252,150.709-58.52
								c37.479-14.349,74.917-29.267,113.064-41.783c6.611-2.169,3.759-12.622-2.872-10.446
								c-80.948,26.558-160.095,59.724-239.392,90.75c-45.014,17.612-89.987,35.331-134.894,53.215
								c-12.554,4.999-24.364,11.319-38.261,7.846c-17.459-4.364-34.576-12.736-51.438-18.948
								c-34.27-12.624-68.728-24.738-103.354-36.349c-80.085-26.854-161.068-50.958-242.733-72.526
								C492.309,1174.776,489.653,1185.277,496.4,1187.059L496.4,1187.059z"/>
						</g>
					</g>
				</g>
				<g>
					<g>
						<g>
							<path style="fill:#24A5B9;" d="M515.019,1518.723c59.203-47.04,121.412-90.405,184.364-132.246
								c45.855-30.477,92.183-62.187,141.384-87.129c7.761-3.935,0.811-15.528-6.917-11.61
								c-50.316,25.508-97.681,58.014-144.541,89.23c-62.881,41.889-124.872,85.381-184.046,132.398
								C498.485,1514.751,508.29,1524.07,515.019,1518.723L515.019,1518.723z"/>
						</g>
					</g>
				</g>
				<g>
					<g>
						<g>
							<path style="fill:#24A5B9;" d="M982.438,1296.056c105.237,65.752,206.561,137.669,303.418,215.236
								c6.727,5.388,16.165-4.304,9.357-9.756c-97.761-78.291-200.021-150.946-306.241-217.312
								C981.594,1279.613,975.068,1291.45,982.438,1296.056L982.438,1296.056z"/>
						</g>
					</g>
				</g>
				<g>
					<g>
						<path style="fill:#FF8D67;" d="M936.644,1267.079c-14.638-12.18-35.213-12.928-52.044-5.271c0,0-26.139,13.035-22.533,47.973
							c1.668,16.162,14.214,29.355,28.117,34.216c13.902,4.859,29.416,1.883,42.049-6.103c6.437-4.07,12.337-9.52,16.123-16.621
							C957.655,1303.832,951.281,1279.26,936.644,1267.079z"/>
					</g>
				</g>
			</g>
		</g>
		<g>
			<g>
				<path style="fill:#FDBAA0;" d="M246.182,1275.568c28.637-22.451,58.901-42.659,90.409-60.368
					c14.303-8.039,29.069-15.642,44.798-19.259c20.505-4.715,41.47-2.412,61.975-0.087c70.046,7.944,141.684,21.545,215.804,35.899
					c27.684,5.361,26.769,14.706,23.46,31.314c-2.296,11.52-9.442,21.876-19.538,28.108c-36.902,22.776-82.303,8.293-127.787,3.992
					c-14.112-1.334-20.247,6.368-37.161,12.311c-33.524,11.779-64.451,14.605-67.115,21.172
					c-41.24,101.674-4.336,168.562-129.873,230.213c-30.807,15.129-25.214-92.124-55.423-104.43l-117.487-5.055
					c-3.908-23.05,53.799-102.964,67.234-122.973C208.912,1306.396,227.326,1290.35,246.182,1275.568z"/>
			</g>
			<g>
				<g>
					<path style="fill:#E79780;" d="M382.094,1506.76c-27.881,47.918-73.82,84.208-126.918,100.173
						c-2.643,0.795-3.879-3.314-1.227-4.111c51.984-15.63,97.041-51.128,124.345-98.054
						C379.679,1502.386,383.484,1504.371,382.094,1506.76L382.094,1506.76z"/>
				</g>
			</g>
			<g>
				<g>
					<path style="fill:#E79780;" d="M170.565,1369.75c-9.027,26.138-16.345,52.822-21.914,79.908
						c-0.558,2.711-4.74,1.755-4.184-0.948c5.57-27.086,12.887-53.77,21.914-79.908
						C167.274,1366.215,171.466,1367.143,170.565,1369.75L170.565,1369.75z"/>
				</g>
			</g>
			<g>
				<g>
					<path style="fill:#E79780;" d="M673.325,1251.517c-24.983,9.993-71.704,4.783-76.934-27.673
						c-0.438-2.722,3.853-2.838,4.287-0.145c2.427,15.066,16.92,23.164,30.617,26.039c13.46,2.825,27.909,2.824,40.802-2.332
						C674.659,1246.382,675.876,1250.497,673.325,1251.517L673.325,1251.517z"/>
				</g>
			</g>
			<g>
				<g>
					<path style="fill:#E79780;" d="M533.707,1295.158c-40.78,17.444-83.637,35.349-128.926,32.469
						c-2.734-0.174-2.903-4.463-0.145-4.287c44.934,2.858,87.387-14.987,127.843-32.292
						C535.012,1289.964,536.224,1294.081,533.707,1295.158L533.707,1295.158z"/>
				</g>
			</g>
			<g>
				<g>
					<path style="fill:#E79780;" d="M433.118,1329.124c-12.845,39.859-23.224,80.471-31.077,121.606
						c-0.519,2.72-4.701,1.76-4.185-0.948c7.853-41.134,18.232-81.747,31.077-121.606
						C429.776,1325.564,433.966,1326.496,433.118,1329.124L433.118,1329.124z"/>
				</g>
			</g>
			<g>
				<g>
					<path style="fill:#E79780;" d="M608.536,1305.291c-26.612,0.782-53.161-2.896-78.545-10.931
						c-2.619-0.829-1.686-5.018,0.947-4.184c25.055,7.93,51.183,11.599,77.453,10.828
						C611.154,1300.923,611.301,1305.21,608.536,1305.291L608.536,1305.291z"/>
				</g>
			</g>
			<g>
				<g>
					<path style="fill:#E79780;" d="M536.46,1204.83c-40.047,0.62-80.095,1.24-120.143,1.859c-2.761,0.043-2.911-4.244-0.145-4.287
						c40.048-0.62,80.095-1.24,120.142-1.859C539.076,1200.5,539.227,1204.787,536.46,1204.83L536.46,1204.83z"/>
				</g>
			</g>
		</g>
	</g>
	<path style="clip-path:url(#SVGID_00000000944923559483091040000013200332989899473578_);fill:#457E84;" d="M-153.605,1443.458
		c0,0,222.879-79.796,228.382-60.535c5.503,19.261-19.261,151.338,52.28,261.401c71.541,110.064,137.58,110.064,126.573,129.325
		C242.624,1792.91-38.038,2051.56-38.038,2051.56L-153.605,1443.458z"/>
	<g style="clip-path:url(#SVGID_00000000944923559483091040000013200332989899473578_);">
		<g>
			<g>
				<path style="fill:#FDBAA0;" d="M646.914,532.742c0,0,52.454-123.191,78.532-148.414
					c26.078-25.223,149.789-35.915,181.449-19.682c31.66,16.234,145.968,99.016,140.998,124.327
					c-4.971,25.311-53.959,25.06-80.492,10.827c-26.533-14.233-74.452-38.9-96.244-27.728
					c-37.891,19.426-86.287,55.606-94.22,65.013c-37.323,44.261-24.402,76.595-45.758,92.464
					C709.823,645.419,646.914,532.742,646.914,532.742z"/>
			</g>
			<g>
				<path style="fill:#FDBAA0;" d="M575.317,423.411c0,0,114.819-102.525,163.591-121.648
					c48.772-19.124,158.354,20.493,172.387,28.728c29.244,17.164,85.662,105.038,75.538,113.763
					c-10.124,8.726-119.266-33.707-119.266-33.707l-161.94,91.486L575.317,423.411z"/>
			</g>
			<g>
				<path style="fill:#FDBAA0;" d="M533.343,292.986c0,0,158.351-50.357,219.299-41.087c60.948,9.27,117.699,56.509,123.114,60.808
					c16.973,13.474-79.443,48.407-79.443,48.407l-153.051,51.389L533.343,292.986z"/>
			</g>
			<g>
				<path style="fill:#FDBAA0;" d="M515.494,304.024c0,0,70.761-46.384,153.796-77.838c29.771-11.277,156.501,13.535,164.894,31.132
					c19.002,39.84-127.764,40.242-127.764,40.242l-79.466,95.564L515.494,304.024z"/>
			</g>
			<g>
				<g>
					<path style="fill:#E5967E;" d="M658.329,410.082c27.689,2.714,55.636,5.711,83.393,2.101
						c27.254-3.545,51.68-14.121,77.106-23.941c23.309-9.002,49.497-17.503,74.829-13.968c30.093,4.199,60.375,19.152,86.331,34.275
						c4.792,2.792,0.411,10.199-4.373,7.412c-14.23-8.29-28.983-15.617-44.326-21.619c-14.064-5.501-29.292-11.352-44.53-12.149
						c-27.139-1.419-53.558,9.456-78.22,19.294c-23.261,9.28-46.06,17.203-71.134,19.796c-26.439,2.734-52.888-0.018-79.22-2.599
						C652.706,418.147,652.809,409.541,658.329,410.082L658.329,410.082z"/>
				</g>
			</g>
			<g>
				<g>
					<path style="fill:#E5967E;" d="M674.091,355.782c47.455-3.951,89.424-27.083,135.918-34.936
						c37.409-6.319,84.856-9.035,117.611,13.721c4.527,3.145,0.177,10.573-4.373,7.412c-33.219-23.08-83.032-18.777-120.547-11.018
						c-20.696,4.281-40.426,11.825-60.413,18.516c-22.305,7.467-44.851,12.951-68.339,14.907
						C668.427,364.843,668.615,356.238,674.091,355.782L674.091,355.782z"/>
				</g>
			</g>
			<g>
				<g>
					<path style="fill:#E5967E;" d="M666.437,290.655c20.831-2.741,39.774-9.977,58.41-19.465c9.585-4.88,19.02-10.053,28.623-14.9
						c8.969-4.527,17.885-8.385,28.144-6.87c19.127,2.824,36.907,15.293,51.927,26.668c17.366,13.15,33.494,27.986,51.893,39.731
						c4.664,2.977,0.299,10.394-4.373,7.411c-16.825-10.74-31.745-24.073-47.454-36.315c-15.262-11.895-34.892-27.64-54.972-29.263
						c-11.186-0.905-22.042,6.654-31.551,11.634c-8.685,4.549-17.319,9.209-26.16,13.453c-16.722,8.027-34.004,13.847-52.443,16.273
						C663.052,299.727,660.938,291.378,666.437,290.655L666.437,290.655z"/>
				</g>
			</g>
			<g>
				<g>
					<g>
						<g>
							<path style="fill:#EDF9FC;" d="M1494.887,948.042l-727.11-213.796c-15.786-4.642-24.904-21.355-20.262-37.141l118.59-403.317
								c4.641-15.786,21.355-24.904,37.141-20.263l727.109,213.797c15.786,4.641,24.904,21.355,20.262,37.141l-118.59,403.317
								C1527.386,943.566,1510.672,952.684,1494.887,948.042z"/>
						</g>
					</g>
					<g>
						<g>
							<g>
								<path style="fill:#76BAC1;" d="M835.432,402.371c65.056,41.435,128.933,84.704,191.412,129.935
									c30.278,21.92,60.231,44.289,89.839,67.107c14.088,10.857,28.098,21.816,42.026,32.876
									c11.26,8.941,22.176,18.964,37.229,19.834c21.657,1.252,44.718-2.826,66.349-4.297c25.221-1.716,50.445-3.393,75.67-5.036
									c53.777-3.503,107.563-6.876,161.367-9.931c40.068-2.275,80.269-5.106,120.415-5.432c6.958-0.056,7.418-10.882,0.44-10.825
									c-85.19,0.691-170.675,8.224-255.65,13.674c-48.238,3.094-96.469,6.301-144.688,9.686
									c-13.48,0.946-26.652,3.377-38.835-4.157c-15.306-9.465-29.068-22.645-43.243-33.689
									c-28.81-22.446-57.954-44.462-87.411-66.05c-68.13-49.93-137.952-97.514-209.194-142.889
									C835.269,389.426,829.546,398.622,835.432,402.371L835.432,402.371z"/>
							</g>
						</g>
					</g>
					<g>
						<g>
							<g>
								<path style="fill:#76BAC1;" d="M752.338,723.996c70.702-26.814,143.15-49.214,215.843-69.935
									c52.95-15.094,106.726-31.218,161.18-40.021c8.59-1.389,5.494-14.547-3.06-13.164
									c-55.69,9.003-110.695,25.57-164.827,41.063c-72.64,20.789-144.919,43.376-215.586,70.177
									C737.793,715.186,744.301,727.044,752.338,723.996L752.338,723.996z"/>
							</g>
						</g>
					</g>
					<g>
						<g>
							<g>
								<path style="fill:#76BAC1;" d="M1265.327,653.974c80.266,94.634,154.929,193.951,223.62,297.293
									c4.771,7.178,16.708,0.815,11.88-6.45c-69.331-104.306-144.663-204.611-225.678-300.129
									C1269.521,638.053,1259.705,647.346,1265.327,653.974L1265.327,653.974z"/>
							</g>
						</g>
					</g>
					<g>
						<g>
							<path style="fill:#FF8D67;" d="M1230.509,612.447c-10.242-16.054-29.616-23.022-47.978-20.844
								c0,0-28.865,4.471-36.051,38.852c-3.324,15.904,4.617,32.287,16.384,41.144c11.767,8.856,27.451,10.737,41.914,6.969
								c7.37-1.92,14.647-5.318,20.413-10.933C1239.352,653.847,1240.75,628.501,1230.509,612.447z"/>
						</g>
					</g>
				</g>
			</g>
			<g>
				<path style="fill:#FDBAA0;" d="M24.069,875.142c0,0,341.763-137.877,458.937-120.033c117.174,17.844,191.827,15.088,275.6-9.221
					c83.773-24.309,214.258-69.394,247.313-76.793c11.769-2.634,25.902-30.912,0.082-45.772
					c-44.963-25.878-233.03,20.944-252.339-15.519c-4.766-9.001,15.814-71.545,18.652-79.649
					c42.573-121.57-96.645-125.021-124.425-186.356c-18.094-39.95-83.268-75.015-136.863-37.326
					c-103.714,72.934-176.226,132.639-254.702,145.728c-78.476,13.089-370.566,48.3-370.566,48.3L24.069,875.142z"/>
			</g>
			<g>
				<path style="fill:#D44D2C;" d="M962.871,681.494c0,0-1.504-30.877,30.426-35.785c31.93-4.908,48.649,6.226,43.62,19.959
					C1031.89,679.402,962.871,681.494,962.871,681.494z"/>
			</g>
			<g>
				<g>
					<path style="fill:#F8634B;" d="M1024.064,664.145c-8.976-3.052-18.279-3.818-27.605-2.033
						c-5.417,1.036-7.503-7.314-2.044-8.358c10.733-2.054,21.609-1.417,31.969,2.106
						C1031.617,657.639,1029.313,665.931,1024.064,664.145L1024.064,664.145z"/>
				</g>
			</g>
		</g>
		<g>
			<path style="fill:#FF8F65;" d="M-321.31,467.42c0,0,127.21-90.299,366.335-29.338c0,0,52.003-12.514,104.007-55.864
				c52.004-43.35,94.261,78.296,64.162,117.708c-30.1,39.413-9.237,101.816,52.193,139.343
				c61.431,37.527,47.907,66.501,29.649,122.125c-18.257,55.624,63.027,36.831,50.126,86.585
				c-12.901,49.755-113.245,5.348-141.534,26.244c-28.289,20.896-233.797,152.085-233.797,152.085L-321.31,467.42z"/>
		</g>
		<g>
			<g>
				<path style="fill:#FFAA91;" d="M52.352,456.808c-14.949,23.613-13.907,56.14,4.166,77.928
					c17.26,20.809,47.878,32.579,50.647,62.791c1.117,12.197-2.302,24.172-4.913,35.961c-3.285,14.828-4.008,29.512,2.441,43.675
					c12.644,27.769,48.209,35.986,56.199,66.8c6.678,25.75-10.145,75.718,22.93,87.974c5.167,1.915,2.874,10.211-2.321,8.286
					c-28.264-10.474-27.596-43.722-27.002-68.741c0.408-17.195-1.277-33.098-13.997-45.877
					c-11.615-11.668-26.694-19.356-36.559-32.831c-8.35-11.404-13.015-25.404-13.007-39.56c0.007-13.727,4.765-26.775,6.93-40.194
					c3.039-18.835-3.588-32.884-17.545-45.453c-11.464-10.324-24.634-18.867-33.651-31.634
					c-17.234-24.399-17.613-58.405-1.728-83.497C47.9,447.759,55.316,452.125,52.352,456.808L52.352,456.808z"/>
			</g>
		</g>
		<g>
			<g>
				<path style="fill:#FFAA91;" d="M-88.582,578.024c7.697,7.958-4.658,19.934-12.368,11.962
					C-108.647,582.028-96.292,570.053-88.582,578.024L-88.582,578.024z"/>
			</g>
		</g>
		<g>
			<g>
				<path style="fill:#FFAA91;" d="M194.945,650.893c7.697,7.958-4.658,19.934-12.368,11.962
					C174.88,654.897,187.236,642.921,194.945,650.893L194.945,650.893z"/>
			</g>
		</g>
		<g>
			<g>
				<path style="fill:#FFAA91;" d="M158.45,504.263c7.697,7.958-4.658,19.934-12.368,11.962
					C138.385,508.267,150.74,496.291,158.45,504.263L158.45,504.263z"/>
			</g>
		</g>
	</g>
	<g style="clip-path:url(#SVGID_00000000944923559483091040000013200332989899473578_);">
		<g>
			<g>
				<g>
					<g>
						<g>
							<g>
								<path style="fill:#FDBAA0;" d="M3006.419,1109.151c0,0-342.399-103.169-412.652-176.776
									c-95.403-99.958-200.586-130.606-285.574-165.441c-84.989-34.835-222.098-83.142-254.197-98.694
									c-11.428-5.537-53.779,5.379-40.877,50.749c14.942,52.544,199.195,124.497,189.997,140.107
									c-14.844,25.192-398.724-26.07-442.344-21.859c-58.129,5.614-83.73,61.804,4.344,72.975
									c88.074,11.171,285.73,36.72,272.711,52.492c-13.02,15.772-373.775-29.854-385.209,11.574
									c-22.634,82.012,389.663,69.447,375.474,105.12c-9.509,23.907-317.875-12.038-321.153,55.14
									c-3.278,67.177,350.703,19.54,324.693,50.864c-26.01,31.324-227.464,29.855-210.949,85.901
									c8.641,29.324,333.593,17.69,402.467,21.726c133.281,7.81,181.104,28.282,254.376,68.897
									c73.272,40.616,582.728,392.462,582.728,392.462L3006.419,1109.151z"/>
							</g>
						</g>
					</g>
					<g>
						<g>
							<g>
								<g>
									<path style="fill:#D44D2C;" d="M2555.996,1410.375c-11.926,16.193-26.016,40.497-12.605,59.495
										c12.255,17.359,32.283,0.836,45.256-9.453c38.346-30.414,68.275-73.633,96.347-116.559
										c31.439-48.075,61.02-97.797,89.068-148.616c27.033-48.981,59.259-101.59,69.416-158.988
										c2.048-11.572,5.2-27.698,0.642-38.364c-4.493-10.514-14.695-7.938-23.26-5.589c-20.967,5.75-40.052,19.032-55.539,37.518
										c-4.421,5.277,2.366,12.356,6.76,7.112c12.611-15.052,27.909-26.175,44.751-32.114c3.773-1.33,8.824-3.585,12.762-3.334
										c7.602,0.484,7.354,7.368,7.004,14.459c-0.602,12.21-3.057,24.461-6.247,36.273
										c-12.311,45.593-36.492,87.136-58.477,127.414c-22.719,41.623-46.458,82.507-71.414,122.376
										c-22.773,36.381-46.051,73.086-72.898,105.503c-14.96,18.065-31.239,34.619-49.259,48.038
										c-9.268,6.902-24.695,18.66-29.938,1.717c-4.503-14.552,6.588-29.18,14.39-39.775
										C2566.876,1411.891,2560.115,1404.782,2555.996,1410.375L2555.996,1410.375z"/>
								</g>
							</g>
						</g>
					</g>
					<g>
						<g>
							<g>
								<g>
									<path style="fill:#EF9F8A;" d="M2250.164,900.508c19.229,38.29,35.875,82.977,63.837,115.858
										c35.857,42.165,87.557,53.73,139.746,62.305c6.364,1.046,4.843,10.972-1.554,9.921
										c-49.99-8.214-99.443-18.796-136.649-55.852c-34.572-34.433-53.206-85.689-74.695-128.481
										C2237.945,898.476,2247.283,894.773,2250.164,900.508L2250.164,900.508z"/>
								</g>
							</g>
						</g>
					</g>
					<g>
						<g>
							<g>
								<g>
									<path style="fill:#EF9F8A;" d="M2319.434,1121.637c-34.496,7.176-67.772,17.726-100.153,31.583
										c-5.952,2.547-9.684-6.775-3.75-9.315c33.224-14.219,67.395-24.885,102.763-32.242
										C2324.618,1110.348,2325.717,1120.33,2319.434,1121.637L2319.434,1121.637z"/>
								</g>
							</g>
						</g>
					</g>
					<g>
						<g>
							<g>
								<g>
									<path style="fill:#EF9F8A;" d="M2530.022,1147.96c11.944,7.584,24.489,13.818,37.67,18.939
										c6.024,2.341,1.972,11.527-4.051,9.187c-13.995-5.438-27.199-12.225-39.867-20.268
										C2518.32,1152.355,2524.614,1144.526,2530.022,1147.96L2530.022,1147.96z"/>
								</g>
							</g>
						</g>
					</g>
					<g>
						<g>
							<g>
								<g>
									<path style="fill:#EF9F8A;" d="M2045.012,1165.546c-2.664,14.22-1.71,27.901,3.108,41.557
										c2.147,6.084-7.163,9.849-9.315,3.75c-5.404-15.314-6.708-30.881-3.714-46.86
										C2036.277,1157.661,2046.206,1159.171,2045.012,1165.546L2045.012,1165.546z"/>
								</g>
							</g>
						</g>
					</g>
					<g>
						<g>
							<g>
								<g>
									<path style="fill:#EF9F8A;" d="M2045.435,1054.309c-3.541,12.781-4.194,25.37-1.909,38.444
										c1.113,6.368-8.865,7.485-9.974,1.139c-2.429-13.899-1.807-27.532,1.962-41.137
										C2037.217,1046.609,2047.162,1048.074,2045.435,1054.309L2045.435,1054.309z"/>
								</g>
							</g>
						</g>
					</g>
					<g>
						<g>
							<g>
								<g>
									<path style="fill:#EF9F8A;" d="M2057.419,943.866c-4.564,11.222-7.056,22.816-7.236,34.937
										c-0.094,6.37-10.069,7.591-9.974,1.139c0.207-13.986,2.75-27.164,8.023-40.126
										C2050.667,933.829,2059.857,937.873,2057.419,943.866L2057.419,943.866z"/>
								</g>
							</g>
						</g>
					</g>
				</g>
			</g>
		</g>
		<g>
			<g>
				<g>
					<g>
						<path style="fill:#EF9F8A;" d="M2592.26,920.883c23.164,31.196,21.187,68.899,17.586,105.766
							c-0.628,6.426-10.548,4.87-9.92-1.553c3.334-34.144,5.87-69.142-15.703-98.195
							C2580.364,921.704,2588.406,915.693,2592.26,920.883L2592.26,920.883z"/>
					</g>
				</g>
			</g>
		</g>
		<g>
			<g>
				<g>
					<g>
						<path style="fill:#EF9F8A;" d="M2472.925,1279.236c-42.154,31.087-92.183,35.885-143.12,33.132
							c-6.437-0.348-4.857-10.267,1.553-9.92c48.175,2.603,95.623-1.806,135.549-31.25
							C2472.116,1267.357,2478.129,1275.398,2472.925,1279.236L2472.925,1279.236z"/>
					</g>
				</g>
			</g>
		</g>
	</g>
</g>
</svg>
