<?xml version="1.0" ?>
<svg width="30px" height="30px" viewBox="0 0 24 24" xmlns="http://www.w3.org/2000/svg">
<defs><style>.cls-1{fill:none;}.cls-2{fill:#0079bd;}.cls-3{fill:#fff;}</style></defs>
<title/><g data-name="Layer 2" id="Layer_2"><g data-name="Layer 3" id="Layer_3"><rect class="cls-1" height="24" width="24"/>
<path class="cls-2" d="M1,12C1,4,4,1,12,1S23,4,23,12,20,23,12,23,1,20,1,12"/>
<polygon class="cls-3" points="4.96 9.22 8.08 9.22 8.08 19.14 4.96 19.14 4.96 9.22"/>
<path class="cls-3" d="M6.52,4.38a1.8,1.8,0,1,1-1.8,1.8A1.8,1.8,0,0,1,6.52,4.38Z"/>
<path class="cls-3" d="M15.65,9.22a3.94,3.94,0,0,0-2.85,1.43V9.22H9.68v9.92H12.8V13.49a1.68,1.68,0,1,1,3.36,0v5.65h3.12V13.82h0C19.28,11.32,19,9.22,15.65,9.22Z"/></g></g></svg>